<mxfile host="app.diagrams.net" agent="Mozilla/5.0 (X11; Linux x86_64) AppleWebKit/537.36 (KHTML, like Gecko) Chrome/128.0.0.0 Safari/537.36" version="24.7.4">
  <diagram name="Page 2" id="0">
    <mxGraphModel dx="1434" dy="786" grid="1" gridSize="10" guides="1" tooltips="1" connect="1" arrows="1" fold="1" page="1" pageScale="1" pageWidth="827" pageHeight="1169" background="#2e303e" math="0" shadow="0">
      <root>
        <mxCell id="0" />
        <mxCell id="1" parent="0" />
        <mxCell id="I6D7Si3OrlFnAmE2pWNC-75" value="" style="rounded=1;whiteSpace=wrap;html=1;strokeWidth=1;fontFamily=Lato;fontSource=https%3A%2F%2Ffonts.googleapis.com%2Fcss%3Ffamily%3DLato;fontColor=#ffffff;fontStyle=1;strokeColor=#FFFFFF;fillColor=none;autosize=0;comic=0;container=0;dropTarget=0;collapsible=0;fixDash=0;spacingLeft=0;spacingBottom=0;spacingRight=0;spacingTop=0;spacing=4;labelBackgroundColor=none;labelBorderColor=none;fontSize=10;absoluteArcSize=1;arcSize=10;align=center;verticalAlign=middle;" vertex="1" parent="1">
          <mxGeometry x="500" y="160" width="800" height="480" as="geometry" />
        </mxCell>
        <mxCell id="I6D7Si3OrlFnAmE2pWNC-41" value="&lt;font data-font-src=&quot;https://fonts.googleapis.com/css?family=Lato&quot;&gt;Host PC&lt;/font&gt;&lt;div&gt;&lt;font data-font-src=&quot;https://fonts.googleapis.com/css?family=Lato&quot;&gt;(Python scripts)&lt;/font&gt;&lt;/div&gt;" style="rounded=1;whiteSpace=wrap;html=1;strokeWidth=1;fontFamily=Lato;fontSource=https%3A%2F%2Ffonts.googleapis.com%2Fcss%3Ffamily%3DLato;fontColor=#ffffff;fontStyle=1;strokeColor=#FFFFFF;fillColor=none;autosize=0;comic=0;container=0;dropTarget=0;collapsible=0;fixDash=0;spacingLeft=0;spacingBottom=0;spacingRight=0;spacingTop=0;spacing=4;labelBackgroundColor=none;labelBorderColor=none;fontSize=10;absoluteArcSize=1;arcSize=10;align=center;verticalAlign=middle;" vertex="1" parent="1">
          <mxGeometry x="280" y="470" width="120" height="60" as="geometry" />
        </mxCell>
        <mxCell id="I6D7Si3OrlFnAmE2pWNC-43" value="EtherBone" style="rounded=1;whiteSpace=wrap;html=1;strokeWidth=1;fontFamily=Lato;fontSource=https%3A%2F%2Ffonts.googleapis.com%2Fcss%3Ffamily%3DLato;fontColor=#ffffff;fontStyle=1;strokeColor=#FFFFFF;fillColor=none;autosize=0;comic=0;container=0;dropTarget=0;collapsible=0;fixDash=0;spacingLeft=0;spacingBottom=0;spacingRight=0;spacingTop=0;spacing=4;labelBackgroundColor=none;labelBorderColor=none;fontSize=10;absoluteArcSize=1;arcSize=10;align=center;verticalAlign=middle;" vertex="1" parent="1">
          <mxGeometry x="530" y="470" width="120" height="60" as="geometry" />
        </mxCell>
        <mxCell id="I6D7Si3OrlFnAmE2pWNC-44" value="&lt;div style=&quot;line-height: 170%; font-size: 10px;&quot;&gt;Ethernet&lt;/div&gt;" style="rounded=1;orthogonalLoop=1;jettySize=auto;html=1;startArrow=blockThin;startFill=1;endArrow=blockThin;endFill=1;endSize=6;fontSize=10;fontFamily=Lato;fontSource=https%3A%2F%2Ffonts.googleapis.com%2Fcss%3Ffamily%3DLato;fontColor=#FFFFFF;strokeWidth=2;fontStyle=1;strokeColor=#FFFFFF;entryX=1;entryY=0.5;entryDx=0;entryDy=0;spacing=0;exitX=0;exitY=0.5;exitDx=0;exitDy=0;labelBackgroundColor=none;verticalAlign=bottom;jumpStyle=arc;jumpSize=8;align=center;edgeStyle=orthogonalEdgeStyle;" edge="1" parent="1" source="I6D7Si3OrlFnAmE2pWNC-43" target="I6D7Si3OrlFnAmE2pWNC-41">
          <mxGeometry x="0.0013" relative="1" as="geometry">
            <mxPoint x="436" y="480.0000000000001" as="sourcePoint" />
            <mxPoint x="330" y="480.0000000000001" as="targetPoint" />
            <mxPoint as="offset" />
          </mxGeometry>
        </mxCell>
        <mxCell id="I6D7Si3OrlFnAmE2pWNC-45" value="Bulk&lt;div&gt;Transfer&lt;/div&gt;" style="rounded=1;whiteSpace=wrap;html=1;strokeWidth=1;fontFamily=Lato;fontSource=https%3A%2F%2Ffonts.googleapis.com%2Fcss%3Ffamily%3DLato;fontColor=#ffffff;fontStyle=1;strokeColor=#FFFFFF;fillColor=none;autosize=0;comic=0;container=0;dropTarget=0;collapsible=0;fixDash=0;spacingLeft=0;spacingBottom=0;spacingRight=0;spacingTop=0;spacing=4;labelBackgroundColor=none;labelBorderColor=none;fontSize=10;absoluteArcSize=1;arcSize=10;align=center;verticalAlign=middle;" vertex="1" parent="1">
          <mxGeometry x="750.2" y="280" width="120" height="60" as="geometry" />
        </mxCell>
        <mxCell id="I6D7Si3OrlFnAmE2pWNC-46" value="Instruction&lt;div&gt;SRAM&lt;/div&gt;" style="rounded=1;whiteSpace=wrap;html=1;strokeWidth=1;fontFamily=Lato;fontSource=https%3A%2F%2Ffonts.googleapis.com%2Fcss%3Ffamily%3DLato;fontColor=#ffffff;fontStyle=1;strokeColor=#FFFFFF;fillColor=none;autosize=0;comic=0;container=0;dropTarget=0;collapsible=0;fixDash=0;spacingLeft=0;spacingBottom=0;spacingRight=0;spacingTop=0;spacing=4;labelBackgroundColor=none;labelBorderColor=none;fontSize=10;absoluteArcSize=1;arcSize=10;align=center;verticalAlign=middle;" vertex="1" parent="1">
          <mxGeometry x="750.2" y="380" width="120" height="60" as="geometry" />
        </mxCell>
        <mxCell id="I6D7Si3OrlFnAmE2pWNC-47" value="Payload&lt;div&gt;Executor&lt;/div&gt;" style="rounded=1;whiteSpace=wrap;html=1;strokeWidth=1;fontFamily=Lato;fontSource=https%3A%2F%2Ffonts.googleapis.com%2Fcss%3Ffamily%3DLato;fontColor=#ffffff;fontStyle=1;strokeColor=#FFFFFF;fillColor=none;autosize=0;comic=0;container=0;dropTarget=0;collapsible=0;fixDash=0;spacingLeft=0;spacingBottom=0;spacingRight=0;spacingTop=0;spacing=4;labelBackgroundColor=none;labelBorderColor=none;fontSize=10;absoluteArcSize=1;arcSize=10;align=center;verticalAlign=middle;" vertex="1" parent="1">
          <mxGeometry x="750.2" y="470" width="120" height="60" as="geometry" />
        </mxCell>
        <mxCell id="I6D7Si3OrlFnAmE2pWNC-48" value="Scratchpad&lt;div&gt;SRAM&lt;/div&gt;" style="rounded=1;whiteSpace=wrap;html=1;strokeWidth=1;fontFamily=Lato;fontSource=https%3A%2F%2Ffonts.googleapis.com%2Fcss%3Ffamily%3DLato;fontColor=#ffffff;fontStyle=1;strokeColor=#FFFFFF;fillColor=none;autosize=0;comic=0;container=0;dropTarget=0;collapsible=0;fixDash=0;spacingLeft=0;spacingBottom=0;spacingRight=0;spacingTop=0;spacing=4;labelBackgroundColor=none;labelBorderColor=none;fontSize=10;absoluteArcSize=1;arcSize=10;align=center;verticalAlign=middle;" vertex="1" parent="1">
          <mxGeometry x="750.2" y="560" width="120" height="60" as="geometry" />
        </mxCell>
        <mxCell id="I6D7Si3OrlFnAmE2pWNC-49" value="DRAM&lt;div&gt;Controller&lt;/div&gt;" style="rounded=1;whiteSpace=wrap;html=1;strokeWidth=1;fontFamily=Lato;fontSource=https%3A%2F%2Ffonts.googleapis.com%2Fcss%3Ffamily%3DLato;fontColor=#ffffff;fontStyle=1;strokeColor=#FFFFFF;fillColor=none;autosize=0;comic=0;container=0;dropTarget=0;collapsible=0;fixDash=0;spacingLeft=0;spacingBottom=0;spacingRight=0;spacingTop=0;spacing=4;labelBackgroundColor=none;labelBorderColor=none;fontSize=10;absoluteArcSize=1;arcSize=10;align=center;verticalAlign=middle;" vertex="1" parent="1">
          <mxGeometry x="960" y="280" width="120" height="60" as="geometry" />
        </mxCell>
        <mxCell id="I6D7Si3OrlFnAmE2pWNC-50" value="DFI&lt;div&gt;Switch&lt;/div&gt;" style="rounded=1;whiteSpace=wrap;html=1;strokeWidth=1;fontFamily=Lato;fontSource=https%3A%2F%2Ffonts.googleapis.com%2Fcss%3Ffamily%3DLato;fontColor=#ffffff;fontStyle=1;strokeColor=#FFFFFF;fillColor=none;autosize=0;comic=0;container=0;dropTarget=0;collapsible=0;fixDash=0;spacingLeft=0;spacingBottom=0;spacingRight=0;spacingTop=0;spacing=4;labelBackgroundColor=none;labelBorderColor=none;fontSize=10;absoluteArcSize=1;arcSize=10;align=center;verticalAlign=middle;" vertex="1" parent="1">
          <mxGeometry x="960" y="470" width="120" height="60" as="geometry" />
        </mxCell>
        <mxCell id="I6D7Si3OrlFnAmE2pWNC-51" value="PHY" style="rounded=1;whiteSpace=wrap;html=1;strokeWidth=1;fontFamily=Lato;fontSource=https%3A%2F%2Ffonts.googleapis.com%2Fcss%3Ffamily%3DLato;fontColor=#ffffff;fontStyle=1;strokeColor=#FFFFFF;fillColor=none;autosize=0;comic=0;container=0;dropTarget=0;collapsible=0;fixDash=0;spacingLeft=0;spacingBottom=0;spacingRight=0;spacingTop=0;spacing=4;labelBackgroundColor=none;labelBorderColor=none;fontSize=10;absoluteArcSize=1;arcSize=10;align=center;verticalAlign=middle;" vertex="1" parent="1">
          <mxGeometry x="1140" y="470" width="120" height="60" as="geometry" />
        </mxCell>
        <mxCell id="I6D7Si3OrlFnAmE2pWNC-52" value="&lt;div style=&quot;line-height: 170%; font-size: 10px;&quot;&gt;DFI&lt;/div&gt;" style="rounded=1;orthogonalLoop=1;jettySize=auto;html=1;startArrow=blockThin;startFill=1;endArrow=blockThin;endFill=1;endSize=6;fontSize=10;fontFamily=Lato;fontSource=https%3A%2F%2Ffonts.googleapis.com%2Fcss%3Ffamily%3DLato;fontColor=#FFFFFF;strokeWidth=2;fontStyle=1;strokeColor=#FFFFFF;entryX=1;entryY=0.25;entryDx=0;entryDy=0;spacing=0;exitX=0;exitY=0.25;exitDx=0;exitDy=0;labelBackgroundColor=none;verticalAlign=bottom;jumpStyle=arc;jumpSize=8;align=center;edgeStyle=orthogonalEdgeStyle;" edge="1" parent="1" source="I6D7Si3OrlFnAmE2pWNC-50" target="I6D7Si3OrlFnAmE2pWNC-47">
          <mxGeometry x="0.0013" relative="1" as="geometry">
            <mxPoint x="936" y="550.0000000000001" as="sourcePoint" />
            <mxPoint x="830" y="550.0000000000001" as="targetPoint" />
            <mxPoint as="offset" />
          </mxGeometry>
        </mxCell>
        <mxCell id="I6D7Si3OrlFnAmE2pWNC-53" value="&lt;div style=&quot;line-height: 170%; font-size: 10px;&quot;&gt;Control&lt;/div&gt;" style="rounded=1;orthogonalLoop=1;jettySize=auto;html=1;startArrow=classicThin;startFill=1;endArrow=none;endFill=0;endSize=6;fontSize=10;fontFamily=Lato;fontSource=https%3A%2F%2Ffonts.googleapis.com%2Fcss%3Ffamily%3DLato;fontColor=#FFFFFF;strokeWidth=2;fontStyle=1;strokeColor=#FFFFFF;entryX=1;entryY=0.75;entryDx=0;entryDy=0;spacing=0;exitX=0;exitY=0.75;exitDx=0;exitDy=0;labelBackgroundColor=none;verticalAlign=bottom;jumpStyle=arc;jumpSize=8;align=center;edgeStyle=orthogonalEdgeStyle;" edge="1" parent="1" source="I6D7Si3OrlFnAmE2pWNC-50" target="I6D7Si3OrlFnAmE2pWNC-47">
          <mxGeometry x="0.0013" relative="1" as="geometry">
            <mxPoint x="970" y="495" as="sourcePoint" />
            <mxPoint x="880" y="495" as="targetPoint" />
            <mxPoint as="offset" />
          </mxGeometry>
        </mxCell>
        <mxCell id="I6D7Si3OrlFnAmE2pWNC-56" value="&lt;div style=&quot;line-height: 170%; font-size: 10px;&quot;&gt;&lt;br&gt;&lt;/div&gt;" style="rounded=1;orthogonalLoop=1;jettySize=auto;html=1;startArrow=blockThin;startFill=1;endArrow=none;endFill=0;endSize=6;fontSize=10;fontFamily=Lato;fontSource=https%3A%2F%2Ffonts.googleapis.com%2Fcss%3Ffamily%3DLato;fontColor=#FFFFFF;strokeWidth=2;fontStyle=1;strokeColor=#FFFFFF;spacing=0;labelBackgroundColor=none;verticalAlign=bottom;jumpStyle=arc;jumpSize=8;align=center;edgeStyle=orthogonalEdgeStyle;exitX=0.5;exitY=0;exitDx=0;exitDy=0;entryX=0.5;entryY=1;entryDx=0;entryDy=0;" edge="1" parent="1" source="I6D7Si3OrlFnAmE2pWNC-47" target="I6D7Si3OrlFnAmE2pWNC-46">
          <mxGeometry x="0.0013" relative="1" as="geometry">
            <mxPoint x="840" y="470" as="sourcePoint" />
            <mxPoint x="840" y="420" as="targetPoint" />
            <mxPoint as="offset" />
          </mxGeometry>
        </mxCell>
        <mxCell id="I6D7Si3OrlFnAmE2pWNC-57" value="&lt;div style=&quot;line-height: 170%; font-size: 10px;&quot;&gt;&lt;br&gt;&lt;/div&gt;" style="rounded=1;orthogonalLoop=1;jettySize=auto;html=1;startArrow=blockThin;startFill=1;endArrow=none;endFill=0;endSize=6;fontSize=10;fontFamily=Lato;fontSource=https%3A%2F%2Ffonts.googleapis.com%2Fcss%3Ffamily%3DLato;fontColor=#FFFFFF;strokeWidth=2;fontStyle=1;strokeColor=#FFFFFF;spacing=0;labelBackgroundColor=none;verticalAlign=bottom;jumpStyle=arc;jumpSize=8;align=center;edgeStyle=orthogonalEdgeStyle;exitX=0.5;exitY=0;exitDx=0;exitDy=0;entryX=0.5;entryY=1;entryDx=0;entryDy=0;" edge="1" parent="1" source="I6D7Si3OrlFnAmE2pWNC-48" target="I6D7Si3OrlFnAmE2pWNC-47">
          <mxGeometry x="0.0013" relative="1" as="geometry">
            <mxPoint x="820" y="480" as="sourcePoint" />
            <mxPoint x="820" y="450" as="targetPoint" />
            <mxPoint as="offset" />
          </mxGeometry>
        </mxCell>
        <mxCell id="I6D7Si3OrlFnAmE2pWNC-58" value="&lt;div style=&quot;line-height: 170%; font-size: 10px;&quot;&gt;DMA&lt;/div&gt;" style="rounded=1;orthogonalLoop=1;jettySize=auto;html=1;startArrow=blockThin;startFill=1;endArrow=blockThin;endFill=1;endSize=6;fontSize=10;fontFamily=Lato;fontSource=https%3A%2F%2Ffonts.googleapis.com%2Fcss%3Ffamily%3DLato;fontColor=#FFFFFF;strokeWidth=2;fontStyle=1;strokeColor=#FFFFFF;entryX=1;entryY=0.5;entryDx=0;entryDy=0;spacing=0;exitX=0;exitY=0.5;exitDx=0;exitDy=0;labelBackgroundColor=none;verticalAlign=bottom;jumpStyle=arc;jumpSize=8;align=center;edgeStyle=orthogonalEdgeStyle;" edge="1" parent="1" source="I6D7Si3OrlFnAmE2pWNC-49" target="I6D7Si3OrlFnAmE2pWNC-45">
          <mxGeometry x="0.0013" relative="1" as="geometry">
            <mxPoint x="970" y="495" as="sourcePoint" />
            <mxPoint x="880" y="495" as="targetPoint" />
            <mxPoint as="offset" />
          </mxGeometry>
        </mxCell>
        <mxCell id="I6D7Si3OrlFnAmE2pWNC-59" value="&lt;div style=&quot;line-height: 170%; font-size: 10px;&quot;&gt;DFI&lt;/div&gt;" style="rounded=1;orthogonalLoop=1;jettySize=auto;html=1;startArrow=blockThin;startFill=1;endArrow=blockThin;endFill=1;endSize=6;fontSize=10;fontFamily=Lato;fontSource=https%3A%2F%2Ffonts.googleapis.com%2Fcss%3Ffamily%3DLato;fontColor=#FFFFFF;strokeWidth=2;fontStyle=1;strokeColor=#FFFFFF;entryX=0.5;entryY=0;entryDx=0;entryDy=0;spacing=0;exitX=0.5;exitY=1;exitDx=0;exitDy=0;labelBackgroundColor=none;verticalAlign=bottom;jumpStyle=arc;jumpSize=8;align=center;edgeStyle=orthogonalEdgeStyle;spacingLeft=19;spacingBottom=-3;" edge="1" parent="1" source="I6D7Si3OrlFnAmE2pWNC-49" target="I6D7Si3OrlFnAmE2pWNC-50">
          <mxGeometry x="0.0013" relative="1" as="geometry">
            <mxPoint x="970" y="495" as="sourcePoint" />
            <mxPoint x="880" y="495" as="targetPoint" />
            <mxPoint as="offset" />
          </mxGeometry>
        </mxCell>
        <mxCell id="I6D7Si3OrlFnAmE2pWNC-60" value="&lt;div style=&quot;line-height: 170%; font-size: 10px;&quot;&gt;&lt;br&gt;&lt;/div&gt;" style="rounded=1;orthogonalLoop=1;jettySize=auto;html=1;startArrow=blockThin;startFill=1;endArrow=blockThin;endFill=1;endSize=6;fontSize=10;fontFamily=Lato;fontSource=https%3A%2F%2Ffonts.googleapis.com%2Fcss%3Ffamily%3DLato;fontColor=#FFFFFF;strokeWidth=2;fontStyle=1;strokeColor=#FFFFFF;spacing=0;labelBackgroundColor=none;verticalAlign=bottom;jumpStyle=arc;jumpSize=8;align=center;edgeStyle=orthogonalEdgeStyle;exitX=1;exitY=0.5;exitDx=0;exitDy=0;entryX=0;entryY=0.5;entryDx=0;entryDy=0;" edge="1" parent="1" source="I6D7Si3OrlFnAmE2pWNC-43" target="I6D7Si3OrlFnAmE2pWNC-47">
          <mxGeometry x="0.0013" relative="1" as="geometry">
            <mxPoint x="710" y="530" as="sourcePoint" />
            <mxPoint x="710" y="480" as="targetPoint" />
            <mxPoint as="offset" />
          </mxGeometry>
        </mxCell>
        <mxCell id="I6D7Si3OrlFnAmE2pWNC-61" value="&lt;div style=&quot;line-height: 170%; font-size: 10px;&quot;&gt;&lt;br&gt;&lt;/div&gt;" style="rounded=1;orthogonalLoop=1;jettySize=auto;html=1;startArrow=blockThin;startFill=1;endArrow=blockThin;endFill=1;endSize=6;fontSize=10;fontFamily=Lato;fontSource=https%3A%2F%2Ffonts.googleapis.com%2Fcss%3Ffamily%3DLato;fontColor=#FFFFFF;strokeWidth=2;fontStyle=1;strokeColor=#FFFFFF;spacing=0;labelBackgroundColor=none;verticalAlign=bottom;jumpStyle=arc;jumpSize=8;align=center;edgeStyle=orthogonalEdgeStyle;exitX=1;exitY=0.5;exitDx=0;exitDy=0;entryX=0;entryY=0.5;entryDx=0;entryDy=0;" edge="1" parent="1" source="I6D7Si3OrlFnAmE2pWNC-43" target="I6D7Si3OrlFnAmE2pWNC-48">
          <mxGeometry x="0.0013" relative="1" as="geometry">
            <mxPoint x="630" y="510" as="sourcePoint" />
            <mxPoint x="760" y="510" as="targetPoint" />
            <mxPoint as="offset" />
            <Array as="points">
              <mxPoint x="690" y="500" />
              <mxPoint x="690" y="590" />
            </Array>
          </mxGeometry>
        </mxCell>
        <mxCell id="I6D7Si3OrlFnAmE2pWNC-62" value="&lt;div style=&quot;line-height: 170%; font-size: 10px;&quot;&gt;&lt;br&gt;&lt;/div&gt;" style="rounded=1;orthogonalLoop=1;jettySize=auto;html=1;startArrow=blockThin;startFill=1;endArrow=blockThin;endFill=1;endSize=6;fontSize=10;fontFamily=Lato;fontSource=https%3A%2F%2Ffonts.googleapis.com%2Fcss%3Ffamily%3DLato;fontColor=#FFFFFF;strokeWidth=2;fontStyle=1;strokeColor=#FFFFFF;spacing=0;labelBackgroundColor=none;verticalAlign=bottom;jumpStyle=arc;jumpSize=8;align=center;edgeStyle=orthogonalEdgeStyle;exitX=1;exitY=0.5;exitDx=0;exitDy=0;entryX=0;entryY=0.5;entryDx=0;entryDy=0;" edge="1" parent="1" source="I6D7Si3OrlFnAmE2pWNC-43" target="I6D7Si3OrlFnAmE2pWNC-46">
          <mxGeometry x="0.0013" relative="1" as="geometry">
            <mxPoint x="630" y="510" as="sourcePoint" />
            <mxPoint x="760" y="600" as="targetPoint" />
            <mxPoint as="offset" />
            <Array as="points">
              <mxPoint x="690" y="500" />
              <mxPoint x="690" y="410" />
            </Array>
          </mxGeometry>
        </mxCell>
        <mxCell id="I6D7Si3OrlFnAmE2pWNC-63" value="&lt;div style=&quot;line-height: 170%; font-size: 10px;&quot;&gt;&lt;br&gt;&lt;/div&gt;" style="rounded=1;orthogonalLoop=1;jettySize=auto;html=1;startArrow=blockThin;startFill=1;endArrow=blockThin;endFill=1;endSize=6;fontSize=10;fontFamily=Lato;fontSource=https%3A%2F%2Ffonts.googleapis.com%2Fcss%3Ffamily%3DLato;fontColor=#FFFFFF;strokeWidth=2;fontStyle=1;strokeColor=#FFFFFF;spacing=0;labelBackgroundColor=none;verticalAlign=bottom;jumpStyle=arc;jumpSize=8;align=center;edgeStyle=orthogonalEdgeStyle;exitX=1;exitY=0.5;exitDx=0;exitDy=0;entryX=0;entryY=0.5;entryDx=0;entryDy=0;" edge="1" parent="1" source="I6D7Si3OrlFnAmE2pWNC-43" target="I6D7Si3OrlFnAmE2pWNC-45">
          <mxGeometry x="0.0013" relative="1" as="geometry">
            <mxPoint x="630" y="510" as="sourcePoint" />
            <mxPoint x="760" y="420" as="targetPoint" />
            <mxPoint as="offset" />
            <Array as="points">
              <mxPoint x="690" y="500" />
              <mxPoint x="690" y="310" />
            </Array>
          </mxGeometry>
        </mxCell>
        <mxCell id="I6D7Si3OrlFnAmE2pWNC-64" value="&lt;div style=&quot;line-height: 170%; font-size: 10px;&quot;&gt;&lt;br&gt;&lt;/div&gt;" style="rounded=1;orthogonalLoop=1;jettySize=auto;html=1;startArrow=blockThin;startFill=1;endArrow=blockThin;endFill=1;endSize=6;fontSize=10;fontFamily=Lato;fontSource=https%3A%2F%2Ffonts.googleapis.com%2Fcss%3Ffamily%3DLato;fontColor=#FFFFFF;strokeWidth=2;fontStyle=1;strokeColor=#FFFFFF;spacing=0;labelBackgroundColor=none;verticalAlign=bottom;jumpStyle=arc;jumpSize=8;align=center;edgeStyle=orthogonalEdgeStyle;exitX=1;exitY=0.5;exitDx=0;exitDy=0;entryX=0.5;entryY=0;entryDx=0;entryDy=0;" edge="1" parent="1" source="I6D7Si3OrlFnAmE2pWNC-43" target="I6D7Si3OrlFnAmE2pWNC-49">
          <mxGeometry x="0.0013" relative="1" as="geometry">
            <mxPoint x="630" y="510" as="sourcePoint" />
            <mxPoint x="760" y="320" as="targetPoint" />
            <mxPoint as="offset" />
            <Array as="points">
              <mxPoint x="690" y="500" />
              <mxPoint x="690" y="220" />
              <mxPoint x="1020" y="220" />
            </Array>
          </mxGeometry>
        </mxCell>
        <mxCell id="I6D7Si3OrlFnAmE2pWNC-66" value="&lt;span&gt;&lt;font data-font-src=&quot;https://fonts.googleapis.com/css?family=Lato&quot;&gt;WishBone&lt;/font&gt;&lt;/span&gt;" style="text;html=1;align=center;verticalAlign=middle;whiteSpace=wrap;rounded=0;fontStyle=1;fontFamily=Lato;fontSource=https%3A%2F%2Ffonts.googleapis.com%2Fcss%3Ffamily%3DLato;fontColor=#FFFFFF;" vertex="1" parent="1">
          <mxGeometry x="780.2000000000003" y="189.99999999999977" width="60" height="30" as="geometry" />
        </mxCell>
        <mxCell id="I6D7Si3OrlFnAmE2pWNC-67" value="&lt;span&gt;&lt;font data-font-src=&quot;https://fonts.googleapis.com/css?family=Lato&quot;&gt;CSRs&lt;/font&gt;&lt;/span&gt;" style="text;html=1;align=center;verticalAlign=middle;whiteSpace=wrap;rounded=0;fontStyle=1;fontFamily=Lato;fontSource=https%3A%2F%2Ffonts.googleapis.com%2Fcss%3Ffamily%3DLato;fontColor=#FFFFFF;" vertex="1" parent="1">
          <mxGeometry x="690.2000000000003" y="475.19999999999976" width="60" height="30" as="geometry" />
        </mxCell>
        <mxCell id="I6D7Si3OrlFnAmE2pWNC-68" value="&lt;span&gt;&lt;font data-font-src=&quot;https://fonts.googleapis.com/css?family=Lato&quot;&gt;CSRs&lt;/font&gt;&lt;/span&gt;" style="text;html=1;align=center;verticalAlign=middle;whiteSpace=wrap;rounded=0;fontStyle=1;fontFamily=Lato;fontSource=https%3A%2F%2Ffonts.googleapis.com%2Fcss%3Ffamily%3DLato;fontColor=#FFFFFF;" vertex="1" parent="1">
          <mxGeometry x="690.2000000000003" y="279.9999999999998" width="60" height="30" as="geometry" />
        </mxCell>
        <mxCell id="I6D7Si3OrlFnAmE2pWNC-69" value="DRAM" style="rounded=1;whiteSpace=wrap;html=1;strokeWidth=1;fontFamily=Lato;fontSource=https%3A%2F%2Ffonts.googleapis.com%2Fcss%3Ffamily%3DLato;fontColor=#ffffff;fontStyle=1;strokeColor=#FFFFFF;fillColor=none;autosize=0;comic=0;container=0;dropTarget=0;collapsible=0;fixDash=0;spacingLeft=0;spacingBottom=0;spacingRight=0;spacingTop=0;spacing=4;labelBackgroundColor=none;labelBorderColor=none;fontSize=10;absoluteArcSize=1;arcSize=10;align=center;verticalAlign=middle;" vertex="1" parent="1">
          <mxGeometry x="1320" y="470" width="120" height="60" as="geometry" />
        </mxCell>
        <mxCell id="I6D7Si3OrlFnAmE2pWNC-70" value="&lt;div style=&quot;line-height: 170%; font-size: 10px;&quot;&gt;DFI&lt;/div&gt;" style="rounded=1;orthogonalLoop=1;jettySize=auto;html=1;startArrow=blockThin;startFill=1;endArrow=blockThin;endFill=1;endSize=6;fontSize=10;fontFamily=Lato;fontSource=https%3A%2F%2Ffonts.googleapis.com%2Fcss%3Ffamily%3DLato;fontColor=#FFFFFF;strokeWidth=2;fontStyle=1;strokeColor=#FFFFFF;spacing=0;exitX=0;exitY=0.5;exitDx=0;exitDy=0;labelBackgroundColor=none;verticalAlign=bottom;jumpStyle=arc;jumpSize=8;align=center;edgeStyle=orthogonalEdgeStyle;" edge="1" parent="1" source="I6D7Si3OrlFnAmE2pWNC-51">
          <mxGeometry x="0.0013" relative="1" as="geometry">
            <mxPoint x="970" y="495" as="sourcePoint" />
            <mxPoint x="1080" y="500" as="targetPoint" />
            <mxPoint as="offset" />
          </mxGeometry>
        </mxCell>
        <mxCell id="I6D7Si3OrlFnAmE2pWNC-71" value="&lt;div style=&quot;line-height: 170%; font-size: 10px;&quot;&gt;&lt;br&gt;&lt;/div&gt;" style="rounded=1;orthogonalLoop=1;jettySize=auto;html=1;startArrow=blockThin;startFill=1;endArrow=blockThin;endFill=1;endSize=6;fontSize=10;fontFamily=Lato;fontSource=https%3A%2F%2Ffonts.googleapis.com%2Fcss%3Ffamily%3DLato;fontColor=#FFFFFF;strokeWidth=2;fontStyle=1;strokeColor=#FFFFFF;spacing=0;labelBackgroundColor=none;verticalAlign=bottom;jumpStyle=arc;jumpSize=8;align=center;edgeStyle=orthogonalEdgeStyle;exitX=1;exitY=0.5;exitDx=0;exitDy=0;entryX=0;entryY=0.5;entryDx=0;entryDy=0;" edge="1" parent="1" source="I6D7Si3OrlFnAmE2pWNC-51" target="I6D7Si3OrlFnAmE2pWNC-69">
          <mxGeometry x="0.0013" relative="1" as="geometry">
            <mxPoint x="1250" y="470" as="sourcePoint" />
            <mxPoint x="1250" y="420" as="targetPoint" />
            <mxPoint as="offset" />
          </mxGeometry>
        </mxCell>
        <mxCell id="I6D7Si3OrlFnAmE2pWNC-73" value="" style="rounded=1;whiteSpace=wrap;html=1;fontSize=12;arcSize=22;strokeWidth=1;fontFamily=Lato;fontSource=https%3A%2F%2Ffonts.googleapis.com%2Fcss%3Ffamily%3DLato;fontColor=#FFFFFF;dashed=1;strokeColor=#FFFFFF;fillColor=none;verticalAlign=top;horizontal=1;spacingTop=6;fontStyle=1;labelBackgroundColor=none;labelBorderColor=none;absoluteArcSize=1;" vertex="1" parent="1">
          <mxGeometry x="940" y="250" width="350" height="310" as="geometry" />
        </mxCell>
        <mxCell id="I6D7Si3OrlFnAmE2pWNC-74" value="&lt;span&gt;&lt;font data-font-src=&quot;https://fonts.googleapis.com/css?family=Lato&quot;&gt;LiteDRAM&lt;/font&gt;&lt;/span&gt;" style="text;html=1;align=center;verticalAlign=middle;whiteSpace=wrap;rounded=0;fontStyle=1;fontFamily=Lato;fontSource=https%3A%2F%2Ffonts.googleapis.com%2Fcss%3Ffamily%3DLato;fontColor=#FFFFFF;" vertex="1" parent="1">
          <mxGeometry x="1085.0000000000002" y="219.99999999999977" width="60" height="30" as="geometry" />
        </mxCell>
        <mxCell id="I6D7Si3OrlFnAmE2pWNC-76" value="&lt;span&gt;&lt;font data-font-src=&quot;https://fonts.googleapis.com/css?family=Lato&quot;&gt;FPGA&lt;/font&gt;&lt;/span&gt;" style="text;html=1;align=center;verticalAlign=middle;whiteSpace=wrap;rounded=0;fontStyle=1;fontFamily=Lato;fontSource=https%3A%2F%2Ffonts.googleapis.com%2Fcss%3Ffamily%3DLato;fontColor=#FFFFFF;" vertex="1" parent="1">
          <mxGeometry x="870.0000000000002" y="129.99999999999977" width="60" height="30" as="geometry" />
        </mxCell>
      </root>
    </mxGraphModel>
  </diagram>
</mxfile>
